HIERARCHY
ROOT SpineBase
{
  OFFSET 0.000000 0.000000 0.000000
  CHANNELS 6 Xposition Yposition Zposition Zrotation Xrotation Yrotation
  JOINT SpineMid
  {
    OFFSET 0.000000 29.116068 0.000000
    CHANNELS 3 Zrotation Xrotation Yrotation
    JOINT SpineShoulder
    {
      OFFSET -0.200218 21.731803 -0.627537
      CHANNELS 3 Zrotation Xrotation Yrotation
      JOINT Neck
      {
        OFFSET -0.134756 7.207384 -0.502853
        CHANNELS 3 Zrotation Xrotation Yrotation
        JOINT Head
        {
          OFFSET 1.874932 9.207767 5.625231
          CHANNELS 3 Zrotation Xrotation Yrotation
          End Site
          {
            OFFSET 0 0 0
          }
        }
      }
      JOINT ShoulderLeft
      {
        OFFSET -8.563416 -4.649101 -6.218281
        CHANNELS 3 Zrotation Xrotation Yrotation
        JOINT ElbowLeft
        {
          OFFSET -4.169940 -24.088890 -2.125436
          CHANNELS 3 Zrotation Xrotation Yrotation
          JOINT WristLeft
          {
            OFFSET -6.123675 -20.583707 1.056012
            CHANNELS 3 Zrotation Xrotation Yrotation
            JOINT HandLeft
            {
              OFFSET -0.176251 -7.105841 0.372199
              CHANNELS 3 Zrotation Xrotation Yrotation
              JOINT HandTipLeft
              {
                OFFSET -2.680643 -6.969105 -1.483083
                CHANNELS 3 Zrotation Xrotation Yrotation
                End Site
                {
                  OFFSET 0 0 0
                }
              }
              JOINT ThumbLeft
              {
                OFFSET -3.764115 1.886589 -2.742449
                CHANNELS 3 Zrotation Xrotation Yrotation
                End Site
                {
                  OFFSET 0 0 0
                }
              }
            }
          }
        }
      }
      JOINT ShoulderRight
      {
        OFFSET 14.449995 -4.653709 4.519027
        CHANNELS 3 Zrotation Xrotation Yrotation
        JOINT ElbowRight
        {
          OFFSET 1.323436 -27.135692 2.149225
          CHANNELS 3 Zrotation Xrotation Yrotation
          JOINT WristRight
          {
            OFFSET -9.556766 -15.607868 4.047744
            CHANNELS 3 Zrotation Xrotation Yrotation
            JOINT HandRight
            {
              OFFSET -2.366145 -8.710001 1.720085
              CHANNELS 3 Zrotation Xrotation Yrotation
              JOINT HandTipRight
              {
                OFFSET -4.788996 -7.448245 5.403798
                CHANNELS 3 Zrotation Xrotation Yrotation
                End Site
                {
                  OFFSET 0 0 0
                }
              }
              JOINT ThumbRight
              {
                OFFSET 2.316093 -2.388013 -5.450872
                CHANNELS 3 Zrotation Xrotation Yrotation
                End Site
                {
                  OFFSET 0 0 0
                }
              }
            }
          }
        }
      }
    }
  }
  JOINT HipLeft
  {
    OFFSET -6.301681 1.983624 -5.137109
    CHANNELS 3 Zrotation Xrotation Yrotation
    JOINT KneeLeft
    {
      OFFSET 6.421510 -40.080141 -1.620300
      CHANNELS 3 Zrotation Xrotation Yrotation
      JOINT AnkleLeft
      {
        OFFSET 4.746119 -31.941929 0.114306
        CHANNELS 3 Zrotation Xrotation Yrotation
        JOINT FootLeft
        {
          OFFSET -6.596608 -5.756512 -6.951331
          CHANNELS 3 Zrotation Xrotation Yrotation
          End Site
          {
            OFFSET 0 0 0
          }
        }
      }
    }
  }
  JOINT HipRight
  {
    OFFSET 5.103614 0.650968 -1.466560
    CHANNELS 3 Zrotation Xrotation Yrotation
    JOINT KneeRight
    {
      OFFSET -3.584759 -37.777820 -3.734262
      CHANNELS 3 Zrotation Xrotation Yrotation
      JOINT AnkleRight
      {
        OFFSET -0.294882 -35.771226 -4.571798
        CHANNELS 3 Zrotation Xrotation Yrotation
        JOINT FootRight
        {
          OFFSET 3.414234 -2.464421 -11.824558
          CHANNELS 3 Zrotation Xrotation Yrotation
          End Site
          {
            OFFSET 0 0 0
          }
        }
      }
    }
  }
}
MOTION
Frames: 14
Frame Time: 0.033333
51.669640 80.957332 291.040975 -0.000000 0.000000 -17.839656 -0.000000 0.000000 17.839656 -0.000000 0.000000 0.000000 -0.000000 0.000000 0.000000 0.000000 0.000000 0.000000 -0.000000 0.000000 0.000000 -0.000000 0.000000 0.000000 -0.000000 0.000000 0.000000 -0.000000 0.000000 0.000000 0.000000 0.000000 0.000000 0.000000 0.000000 0.000000 -0.000000 0.000000 0.000000 -0.000000 0.000000 0.000000 -0.000000 0.000000 0.000000 -0.000000 0.000000 0.000000 0.000000 0.000000 0.000000 0.000000 0.000000 0.000000 -0.000000 0.000000 17.839656 -0.000000 0.000000 0.000000 -0.000000 0.000000 0.000000 0.000000 0.000000 0.000000 -0.000000 0.000000 17.839656 -0.000000 0.000000 0.000000 -0.000000 0.000000 0.000000 0.000000 0.000000 0.000000
51.734522 80.960957 291.025777 0.091521 0.063386 -18.025546 -0.067415 -0.088596 18.025443 -0.000000 0.000000 0.000000 0.555722 -0.729744 -0.188289 0.000000 0.000000 0.000000 -0.000000 0.000000 0.000000 0.081572 1.097294 -0.323279 -1.093248 -1.824640 0.260229 1.107647 1.483843 -0.283701 0.000000 0.000000 0.000000 0.000000 0.000000 0.000000 -11.309623 6.377829 0.045284 10.215426 0.532331 -3.332593 1.553906 -6.715720 4.576881 -0.679350 8.587674 -6.286329 0.000000 0.000000 0.000000 0.000000 0.000000 0.000000 -0.067415 -0.088596 18.025443 -0.936567 0.571462 0.086337 0.935752 -0.572797 -0.076989 0.000000 0.000000 0.000000 -0.067415 -0.088596 18.025443 -0.000000 0.000000 0.000000 -0.000000 0.000000 0.000000 0.000000 0.000000 0.000000
51.796379 80.966362 291.013457 0.175425 0.126715 -18.174538 -0.127150 -0.175110 18.174150 -0.000000 0.000000 0.000000 1.017246 -1.352912 -0.337003 0.000000 0.000000 0.000000 -0.000000 0.000000 0.000000 0.237633 2.006618 -0.589891 -1.935744 -3.534364 0.445615 2.113579 2.631775 -0.496026 0.000000 0.000000 0.000000 0.000000 0.000000 0.000000 -20.941270 11.515025 1.039082 18.470498 0.812561 -5.122647 2.087741 -9.623831 7.264468 0.641192 14.498530 -11.428552 0.000000 0.000000 0.000000 0.000000 0.000000 0.000000 -0.127150 -0.175110 18.174150 -1.787682 1.100083 0.174638 1.784653 -1.104991 -0.140264 0.000000 0.000000 0.000000 -0.127150 -0.175110 18.174150 -0.000000 0.000000 0.000000 -0.000000 0.000000 0.000000 0.000000 0.000000 0.000000
51.855212 80.973549 291.004015 0.251717 0.189993 -18.286194 -0.179395 -0.259377 18.285370 -0.000000 0.000000 0.000000 1.383148 -1.865560 -0.448165 0.000000 0.000000 0.000000 -0.000000 0.000000 0.000000 0.466165 2.701162 -0.792728 -2.539485 -5.096896 0.574828 3.022612 3.453611 -0.644411 0.000000 0.000000 0.000000 0.000000 0.000000 0.000000 -27.827664 14.813894 2.217946 23.597910 1.764691 -6.478627 1.664406 -10.630908 8.611280 3.262175 18.263440 -15.215020 0.000000 0.000000 0.000000 0.000000 0.000000 0.000000 -0.179395 -0.259377 18.285370 -2.554965 1.586830 0.262923 2.653278 -2.342469 0.542755 0.000000 0.000000 0.000000 -0.179395 -0.259377 18.285370 -0.000000 0.000000 0.000000 -0.000000 0.000000 0.000000 0.000000 0.000000 0.000000
51.911021 80.982515 290.997450 0.320400 0.253229 -18.360111 -0.224330 -0.341258 18.358735 -0.000000 0.000000 0.000000 1.652398 -2.264711 -0.523537 0.000000 0.000000 0.000000 -0.000000 0.000000 0.000000 0.763016 3.161076 -0.925694 -2.911744 -6.488891 0.664000 3.844509 3.950426 -0.730177 0.000000 0.000000 0.000000 0.000000 0.000000 0.000000 -31.575889 16.292904 2.945233 25.360895 3.652968 -8.114825 0.059426 -9.696847 8.669407 6.737553 19.116743 -16.884306 0.000000 0.000000 0.000000 0.000000 0.000000 0.000000 -0.224330 -0.341258 18.358735 -3.240189 2.032812 0.349471 3.564803 -3.154626 0.649805 0.000000 0.000000 0.000000 -0.224330 -0.341258 18.358735 -0.000000 0.000000 0.000000 -0.000000 0.000000 0.000000 0.000000 0.000000 0.000000
51.963805 80.993263 290.993763 0.381475 0.316432 -18.395930 -0.262129 -0.420643 18.393915 -0.000000 0.000000 0.000000 1.824325 -2.548286 -0.564552 0.000000 0.000000 0.000000 -0.000000 0.000000 0.000000 1.122214 3.374750 -0.984098 -3.055077 -7.696630 0.726188 4.593340 4.114755 -0.748778 0.000000 0.000000 0.000000 0.000000 0.000000 0.000000 -32.105364 16.088501 2.911125 23.824594 6.611120 -10.305426 -2.416493 -7.222462 7.899417 10.601017 17.290923 -16.162173 0.000000 0.000000 0.000000 0.000000 0.000000 0.000000 -0.262129 -0.420643 18.393915 -3.845227 2.439220 0.432806 4.503773 -3.987627 0.714968 0.000000 0.000000 0.000000 0.652449 -0.465230 18.347945 -0.854052 0.330142 0.055501 -0.000000 0.000000 0.000000 0.000000 0.000000 0.000000
52.030051 81.005507 290.993109 0.460997 0.392286 -18.385392 -0.313751 -0.517655 18.382397 -0.000000 0.000000 0.000000 1.834215 -2.888903 -0.495267 0.000000 0.000000 0.000000 0.464932 0.901194 -0.200686 1.267234 2.038943 -0.612818 -3.128321 -8.381339 0.659937 6.615679 2.981982 -0.675010 0.000000 0.000000 0.000000 0.000000 0.000000 0.000000 -29.489259 13.318919 1.825190 16.175736 13.925519 -14.793227 -3.574403 -1.837790 8.244569 15.285106 9.357859 -11.098982 0.000000 0.000000 0.000000 0.000000 0.000000 0.000000 -0.313751 -0.517655 18.382397 -5.349100 3.412116 0.652014 7.103657 -6.089113 0.701638 0.000000 0.000000 0.000000 0.825366 -0.606688 18.331537 -1.974767 0.335358 0.191026 0.921773 0.104250 -0.119503 0.000000 0.000000 0.000000
52.090548 81.018101 290.995985 0.529169 0.447947 -18.344053 -0.361321 -0.591711 18.340119 -0.000000 0.000000 0.000000 1.725848 -2.605757 -0.492852 0.000000 0.000000 0.000000 0.518433 1.102266 -0.241529 1.687034 1.449889 -0.423441 -2.609547 -9.142208 0.692872 7.008775 2.929809 -0.711536 0.000000 0.000000 0.000000 0.000000 0.000000 0.000000 -23.140721 9.087610 0.457886 8.733616 19.698776 -16.673518 -7.085273 2.579778 7.037590 19.527072 2.385818 -5.218966 0.000000 0.000000 0.000000 0.000000 0.000000 0.000000 -0.361321 -0.591711 18.340119 -6.151346 4.004308 0.794873 8.723786 -7.612734 0.859284 0.000000 0.000000 0.000000 0.941813 -0.723922 18.287667 -2.388210 0.572730 0.236539 1.192134 -0.043313 -0.151581 0.000000 0.000000 0.000000
52.154831 81.030424 290.995205 0.568442 0.469367 -18.375841 -0.391515 -0.624617 18.371378 -0.000000 0.000000 0.000000 1.668854 -2.271247 -0.532002 0.000000 0.000000 0.000000 0.643568 1.313925 -0.291611 1.870933 0.839605 -0.225241 -1.638321 -9.668743 0.781743 7.153604 1.770591 -0.311956 0.000000 0.000000 0.000000 0.000000 0.000000 0.000000 -13.730057 3.765706 -0.459329 2.048701 24.276576 -16.874475 -13.597625 4.972589 3.754114 23.995163 -4.414325 1.403469 0.000000 0.000000 0.000000 0.000000 0.000000 0.000000 -1.463453 -0.222504 18.514870 -4.545213 2.717670 0.442796 8.801983 -7.843132 1.000546 0.000000 0.000000 0.000000 1.271143 -0.766867 18.302436 -3.342894 1.000424 0.352214 2.708381 1.248458 -2.150220 0.000000 0.000000 0.000000
52.198285 81.053264 290.983252 0.601972 0.566040 -18.406464 -0.392482 -0.727135 18.401000 -0.000000 0.000000 0.000000 1.653035 -2.334349 -0.508691 0.000000 0.000000 0.000000 0.799457 1.522067 -0.344666 2.380045 0.193602 0.014334 -1.811157 -9.123976 0.679236 9.333277 0.810965 -0.694809 0.000000 0.000000 0.000000 0.000000 0.000000 0.000000 -1.695885 -1.632306 -0.238007 -9.622870 28.101763 -16.148300 -18.023631 5.045354 1.417542 28.828478 -3.646292 4.608879 0.000000 0.000000 0.000000 0.000000 0.000000 0.000000 -1.291926 -0.594056 18.489238 -3.657383 2.429009 0.390911 7.475983 -6.526771 0.526568 0.000000 0.000000 0.000000 1.052612 -0.909480 18.351416 -3.108963 1.104706 0.329729 2.478211 0.847083 -1.551197 0.000000 0.000000 0.000000
52.191816 81.063009 291.004086 0.558657 0.625217 -18.185248 -0.335666 -0.768321 18.179949 -0.000000 0.000000 0.000000 1.634674 -2.320554 -0.500676 0.000000 0.000000 0.000000 0.871876 1.720155 -0.387807 2.857431 -0.186305 0.162011 -1.993785 -9.496696 0.663954 11.014682 -0.786610 -0.329569 0.000000 0.000000 0.000000 0.000000 0.000000 0.000000 7.938981 -5.223674 0.732453 -16.030055 26.293437 -12.852783 -23.725004 6.374818 -1.978144 29.483996 -0.610323 2.872891 0.000000 0.000000 0.000000 0.000000 0.000000 0.000000 -0.335666 -0.768321 18.179949 -4.133353 2.947362 0.532517 6.478712 -4.891856 -0.868103 0.000000 0.000000 0.000000 0.711465 -1.073130 18.166307 -2.124378 0.899591 0.205551 -0.147026 -2.399093 3.854346 0.000000 0.000000 0.000000
52.101815 81.100887 291.052831 0.440821 0.729060 -17.603314 -0.267552 0.030198 17.611952 -0.195100 -0.838706 -0.014786 1.538972 -2.559724 -0.390957 0.000000 0.000000 0.000000 0.988024 1.917855 -0.435745 2.710239 -0.329666 0.195926 -1.385712 -9.902375 0.783266 11.026006 -0.793873 -0.385367 0.000000 0.000000 0.000000 0.000000 0.000000 0.000000 15.843678 -7.586268 1.926194 -19.395714 18.745782 -6.608325 -30.512014 7.227568 -5.228923 28.033656 8.524768 -3.548230 0.000000 0.000000 0.000000 0.000000 0.000000 0.000000 -0.039922 -1.850012 17.445256 -3.563246 4.080363 0.767429 4.903924 -3.408306 -1.423849 0.000000 0.000000 0.000000 -0.199722 -0.828224 17.599066 -0.000000 0.000000 0.000000 -2.972785 -5.334757 9.072288 0.000000 0.000000 0.000000
51.958283 81.167230 291.117550 0.265950 0.860177 -16.703844 -0.237984 0.081185 16.711186 -0.110770 -0.030319 0.002776 1.396204 -4.027161 -0.159835 0.000000 0.000000 0.000000 1.230644 1.104082 -0.480173 2.159108 -0.417735 0.195063 0.203612 -9.463873 0.990808 10.094836 0.432287 -1.238552 0.000000 0.000000 0.000000 0.000000 0.000000 0.000000 21.792894 -8.835351 3.181357 -19.630911 4.723943 2.820559 -36.125810 2.187112 -6.593694 19.700007 38.683793 -25.056991 0.000000 0.000000 0.000000 0.000000 0.000000 0.000000 0.793335 -2.538955 16.425463 -3.609303 4.951220 0.962130 3.095547 -0.223508 -3.468019 0.000000 0.000000 0.000000 -1.263919 -1.387223 16.819353 3.091691 -0.508215 -0.356489 -5.778901 -7.180219 13.735414 0.000000 0.000000 0.000000
51.722752 81.275285 291.198917 0.006717 0.958456 -15.633385 -0.172088 0.112488 15.638897 -0.091843 0.009798 -0.001803 1.278924 -4.486196 0.088936 0.000000 0.000000 0.000000 1.039844 1.101472 -0.460498 2.272201 -0.608922 0.198528 1.248120 -8.977105 1.082038 10.814161 0.159775 -1.670345 0.000000 0.000000 0.000000 0.000000 0.000000 0.000000 24.720870 -6.615222 3.328918 -11.847677 -11.319167 14.709962 -33.676364 -14.212289 -5.214032 -45.758702 84.638452 -4.140492 0.000000 0.000000 0.000000 0.000000 0.000000 0.000000 1.621607 -3.211733 15.244439 -3.635584 5.957722 1.173230 -0.048113 1.165338 -2.064577 0.000000 0.000000 0.000000 -2.489361 -1.408020 15.826923 6.639301 -1.586406 -0.663005 -8.394414 -7.836169 16.803107 0.000000 0.000000 0.000000
